<svg xmlns="http://www.w3.org/2000/svg" width="1440" height="1029" fill="none"><path stroke="url(#paint0_radial_8_110)" stroke-opacity="0.3" stroke-width="0.362547" d="M-73.1765 1H-179V86.5833M-73.1765 1V86.5833M-73.1765 1H32.6471M-73.1765 86.5833H-179M-73.1765 86.5833H32.6471M-73.1765 86.5833V172.167M-179 86.5833V172.167M32.6471 1V86.5833M32.6471 1H138.471M32.6471 86.5833H138.471M32.6471 86.5833V172.167M138.471 1V86.5833M138.471 1H244.294M138.471 86.5833H244.294M138.471 86.5833V172.167M244.294 1V86.5833M244.294 1H350.118M244.294 86.5833H350.118M244.294 86.5833V172.167M350.118 1V86.5833M350.118 1H455.941M350.118 86.5833H455.941M350.118 86.5833V172.167M455.941 1V86.5833M455.941 1H561.765M455.941 86.5833H561.765M455.941 86.5833V172.167M561.765 1V86.5833M561.765 1H667.588M561.765 86.5833H667.588M561.765 86.5833V172.167M667.588 1V86.5833M667.588 1H773.412M667.588 86.5833H773.412M667.588 86.5833V172.167M773.412 1V86.5833M773.412 1H879.235M773.412 86.5833H879.235M773.412 86.5833V172.167M879.235 1V86.5833M879.235 1H985.059M879.235 86.5833H985.059M879.235 86.5833V172.167M985.059 1V86.5833M985.059 1H1090.88M985.059 86.5833H1090.88M985.059 86.5833V172.167M1090.88 1V86.5833M1090.88 1H1196.71M1090.88 86.5833H1196.71M1090.88 86.5833V172.167M1196.71 1V86.5833M1196.71 1H1302.53M1196.71 86.5833H1302.53M1196.71 86.5833V172.167M1302.53 1V86.5833M1302.53 1H1408.35M1302.53 86.5833H1408.35M1302.53 86.5833V172.167M1408.35 1V86.5833M1408.35 1H1514.18M1408.35 86.5833H1514.18M1408.35 86.5833V172.167M1514.18 1V86.5833M1514.18 1H1620V86.5833M1514.18 86.5833H1620M1514.18 86.5833V172.167M1620 86.5833V172.167M-73.1765 172.167H-179M-73.1765 172.167H32.6471M-73.1765 172.167V257.75M-179 172.167V257.75M32.6471 172.167H138.471M32.6471 172.167V257.75M138.471 172.167H244.294M138.471 172.167V257.75M244.294 172.167H350.118M244.294 172.167V257.75M350.118 172.167H455.941M350.118 172.167V257.75M455.941 172.167H561.765M455.941 172.167V257.75M561.765 172.167H667.588M561.765 172.167V257.75M667.588 172.167H773.412M667.588 172.167V257.75M773.412 172.167H879.235M773.412 172.167V257.75M879.235 172.167H985.059M879.235 172.167V257.75M985.059 172.167H1090.88M985.059 172.167V257.75M1090.88 172.167H1196.71M1090.88 172.167V257.75M1196.71 172.167H1302.53M1196.71 172.167V257.75M1302.53 172.167H1408.35M1302.53 172.167V257.75M1408.35 172.167H1514.18M1408.35 172.167V257.75M1514.18 172.167H1620M1514.18 172.167V257.75M1620 172.167V257.75M-73.1765 257.75H-179M-73.1765 257.75H32.6471M-73.1765 257.75V343.333M-179 257.75V343.333M32.6471 257.75H138.471M32.6471 257.75V343.333M138.471 257.75H244.294M138.471 257.75V343.333M244.294 257.75H350.118M244.294 257.75V343.333M350.118 257.75H455.941M350.118 257.75V343.333M455.941 257.75H561.765M455.941 257.75V343.333M561.765 257.75H667.588M561.765 257.75V343.333M667.588 257.75H773.412M667.588 257.75V343.333M773.412 257.75H879.235M773.412 257.75V343.333M879.235 257.75H985.059M879.235 257.75V343.333M985.059 257.75H1090.88M985.059 257.75V343.333M1090.88 257.75H1196.71M1090.88 257.75V343.333M1196.71 257.75H1302.53M1196.71 257.75V343.333M1302.53 257.75H1408.35M1302.53 257.75V343.333M1408.35 257.75H1514.18M1408.35 257.75V343.333M1514.18 257.75H1620M1514.18 257.75V343.333M1620 257.75V343.333M-73.1765 343.333H-179M-73.1765 343.333H32.6471M-73.1765 343.333V428.917M-179 343.333V428.917M32.6471 343.333H138.471M32.6471 343.333V428.917M138.471 343.333H244.294M138.471 343.333V428.917M244.294 343.333H350.118M244.294 343.333V428.917M350.118 343.333H455.941M350.118 343.333V428.917M455.941 343.333H561.765M455.941 343.333V428.917M561.765 343.333H667.588M561.765 343.333V428.917M667.588 343.333H773.412M667.588 343.333V428.917M773.412 343.333H879.235M773.412 343.333V428.917M879.235 343.333H985.059M879.235 343.333V428.917M985.059 343.333H1090.88M985.059 343.333V428.917M1090.88 343.333H1196.71M1090.88 343.333V428.917M1196.71 343.333H1302.53M1196.71 343.333V428.917M1302.53 343.333H1408.35M1302.53 343.333V428.917M1408.35 343.333H1514.18M1408.35 343.333V428.917M1514.18 343.333H1620M1514.18 343.333V428.917M1620 343.333V428.917M-73.1765 428.917H-179M-73.1765 428.917H32.6471M-73.1765 428.917V514.5M-179 428.917V514.5M32.6471 428.917H138.471M32.6471 428.917V514.5M138.471 428.917H244.294M138.471 428.917V514.5M244.294 428.917H350.118M244.294 428.917V514.5M350.118 428.917H455.941M350.118 428.917V514.5M455.941 428.917H561.765M455.941 428.917V514.5M561.765 428.917H667.588M561.765 428.917V514.5M667.588 428.917H773.412M667.588 428.917V514.5M773.412 428.917H879.235M773.412 428.917V514.5M879.235 428.917H985.059M879.235 428.917V514.5M985.059 428.917H1090.88M985.059 428.917V514.5M1090.88 428.917H1196.71M1090.88 428.917V514.5M1196.71 428.917H1302.53M1196.71 428.917V514.5M1302.53 428.917H1408.35M1302.53 428.917V514.5M1408.35 428.917H1514.18M1408.35 428.917V514.5M1514.18 428.917H1620M1514.18 428.917V514.5M1620 428.917V514.5M-73.1765 514.5H-179M-73.1765 514.5H32.6471M-73.1765 514.5V600.083M-179 514.5V600.083M32.6471 514.5H138.471M32.6471 514.5V600.083M138.471 514.5H244.294M138.471 514.5V600.083M244.294 514.5H350.118M244.294 514.5V600.083M350.118 514.5H455.941M350.118 514.5V600.083M455.941 514.5H561.765M455.941 514.5V600.083M561.765 514.5H667.588M561.765 514.5V600.083M667.588 514.5H773.412M667.588 514.5V600.083M773.412 514.5H879.235M773.412 514.5V600.083M879.235 514.5H985.059M879.235 514.5V600.083M985.059 514.5H1090.88M985.059 514.5V600.083M1090.88 514.5H1196.71M1090.88 514.5V600.083M1196.71 514.5H1302.53M1196.71 514.5V600.083M1302.53 514.5H1408.35M1302.53 514.5V600.083M1408.35 514.5H1514.18M1408.35 514.5V600.083M1514.18 514.5H1620M1514.18 514.5V600.083M1620 514.5V600.083M-73.1765 600.083H-179M-73.1765 600.083H32.6471M-73.1765 600.083V685.667M-179 600.083V685.667M32.6471 600.083H138.471M32.6471 600.083V685.667M138.471 600.083H244.294M138.471 600.083V685.667M244.294 600.083H350.118M244.294 600.083V685.667M350.118 600.083H455.941M350.118 600.083V685.667M455.941 600.083H561.765M455.941 600.083V685.667M561.765 600.083H667.588M561.765 600.083V685.667M667.588 600.083H773.412M667.588 600.083V685.667M773.412 600.083H879.235M773.412 600.083V685.667M879.235 600.083H985.059M879.235 600.083V685.667M985.059 600.083H1090.88M985.059 600.083V685.667M1090.88 600.083H1196.71M1090.88 600.083V685.667M1196.71 600.083H1302.53M1196.71 600.083V685.667M1302.53 600.083H1408.35M1302.53 600.083V685.667M1408.35 600.083H1514.18M1408.35 600.083V685.667M1514.18 600.083H1620M1514.18 600.083V685.667M1620 600.083V685.667M-73.1765 685.667H-179M-73.1765 685.667H32.6471M-73.1765 685.667V771.25M-179 685.667V771.25M32.6471 685.667H138.471M32.6471 685.667V771.25M138.471 685.667H244.294M138.471 685.667V771.25M244.294 685.667H350.118M244.294 685.667V771.25M350.118 685.667H455.941M350.118 685.667V771.25M455.941 685.667H561.765M455.941 685.667V771.25M561.765 685.667H667.588M561.765 685.667V771.25M667.588 685.667H773.412M667.588 685.667V771.25M773.412 685.667H879.235M773.412 685.667V771.25M879.235 685.667H985.059M879.235 685.667V771.25M985.059 685.667H1090.88M985.059 685.667V771.25M1090.88 685.667H1196.71M1090.88 685.667V771.25M1196.71 685.667H1302.53M1196.71 685.667V771.25M1302.53 685.667H1408.35M1302.53 685.667V771.25M1408.35 685.667H1514.18M1408.35 685.667V771.25M1514.18 685.667H1620M1514.18 685.667V771.25M1620 685.667V771.25M-73.1765 771.25H-179M-73.1765 771.25H32.6471M-73.1765 771.25V856.833M-179 771.25V856.833M32.6471 771.25H138.471M32.6471 771.25V856.833M138.471 771.25H244.294M138.471 771.25V856.833M244.294 771.25H350.118M244.294 771.25V856.833M350.118 771.25H455.941M350.118 771.25V856.833M455.941 771.25H561.765M455.941 771.25V856.833M561.765 771.25H667.588M561.765 771.25V856.833M667.588 771.25H773.412M667.588 771.25V856.833M773.412 771.25H879.235M773.412 771.25V856.833M879.235 771.25H985.059M879.235 771.25V856.833M985.059 771.25H1090.88M985.059 771.25V856.833M1090.88 771.25H1196.71M1090.88 771.25V856.833M1196.71 771.25H1302.53M1196.71 771.25V856.833M1302.53 771.25H1408.35M1302.53 771.25V856.833M1408.35 771.25H1514.18M1408.35 771.25V856.833M1514.18 771.25H1620M1514.18 771.25V856.833M1620 771.25V856.833M-73.1765 856.833H-179M-73.1765 856.833H32.6471M-73.1765 856.833V942.417M-179 856.833V942.417M32.6471 856.833H138.471M32.6471 856.833V942.417M138.471 856.833H244.294M138.471 856.833V942.417M244.294 856.833H350.118M244.294 856.833V942.417M350.118 856.833H455.941M350.118 856.833V942.417M455.941 856.833H561.765M455.941 856.833V942.417M561.765 856.833H667.588M561.765 856.833V942.417M667.588 856.833H773.412M667.588 856.833V942.417M773.412 856.833H879.235M773.412 856.833V942.417M879.235 856.833H985.059M879.235 856.833V942.417M985.059 856.833H1090.88M985.059 856.833V942.417M1090.88 856.833H1196.71M1090.88 856.833V942.417M1196.71 856.833H1302.53M1196.71 856.833V942.417M1302.53 856.833H1408.35M1302.53 856.833V942.417M1408.35 856.833H1514.18M1408.35 856.833V942.417M1514.18 856.833H1620M1514.18 856.833V942.417M1620 856.833V942.417M-73.1765 942.417H-179M-73.1765 942.417H32.6471M-73.1765 942.417V1028M-179 942.417V1028H-73.1765M32.6471 942.417H138.471M32.6471 942.417V1028M138.471 942.417H244.294M138.471 942.417V1028M244.294 942.417H350.118M244.294 942.417V1028M350.118 942.417H455.941M350.118 942.417V1028M455.941 942.417H561.765M455.941 942.417V1028M561.765 942.417H667.588M561.765 942.417V1028M667.588 942.417H773.412M667.588 942.417V1028M773.412 942.417H879.235M773.412 942.417V1028M879.235 942.417H985.059M879.235 942.417V1028M985.059 942.417H1090.88M985.059 942.417V1028M1090.88 942.417H1196.71M1090.88 942.417V1028M1196.71 942.417H1302.53M1196.71 942.417V1028M1302.53 942.417H1408.35M1302.53 942.417V1028M1408.35 942.417H1514.18M1408.35 942.417V1028M1514.18 942.417H1620M1514.18 942.417V1028M1620 942.417V1028H1514.18M-73.1765 1028H32.6471M32.6471 1028H138.471M138.471 1028H244.294M244.294 1028H350.118M350.118 1028H455.941M455.941 1028H561.765M561.765 1028H667.588M667.588 1028H773.412M773.412 1028H879.235M879.235 1028H985.059M985.059 1028H1090.88M1090.88 1028H1196.71M1196.71 1028H1302.53M1302.53 1028H1408.35M1408.35 1028H1514.18"/><rect width="108" height="86" fill="#6366F1" fill-opacity="0.03" transform="translate(32 685)"/><rect width="108" height="86" fill="#6366F1" fill-opacity="0.03" transform="translate(1300 343)"/><rect width="108" height="86" fill="#6366F1" fill-opacity="0.03" transform="translate(349 257)"/><rect width="108" height="86" fill="#6366F1" fill-opacity="0.03" transform="translate(984 172)"/><rect width="108" height="86" fill="#6366F1" fill-opacity="0.03" transform="translate(561 514)"/><rect width="108" height="86" fill="#6366F1" fill-opacity="0.03" transform="translate(31 343)"/><rect width="108" height="86" fill="#6366F1" fill-opacity="0.03" transform="translate(-75 428)"/><rect width="108" height="86" fill="#6366F1" fill-opacity="0.03" transform="translate(1196 600)"/><rect width="108" height="86" fill="#6366F1" fill-opacity="0.03" transform="translate(1408 429)"/><rect width="108" height="86" fill="#6366F1" fill-opacity="0.03" transform="translate(138 86)"/><defs><radialGradient id="paint0_radial_8_110" cx="0" cy="0" r="1" gradientTransform="translate(720.5 514.5) rotate(90) scale(459.973 805.736)" gradientUnits="userSpaceOnUse"><stop stop-color="#A1AFBD"/><stop offset="1" stop-color="#87AACD" stop-opacity="0.31"/></radialGradient></defs></svg>